<svg width="301" height="76" viewBox="0 0 301 76" fill="none" xmlns="http://www.w3.org/2000/svg">
<path d="M46.3125 73.3125C42.8125 73.3125 40.9062 72 40.9062 69.625C40.9062 68.0312 42.0312 67 43.8438 67C44.5 67 44.8125 67.0312 45.5312 67.0312C47.2812 67.0312 49.0938 66.125 50.25 63.2188L50.8125 61.5938L39.9688 33.0625C39.6875 32.2812 39.5312 31.4688 39.5312 30.8438C39.5312 28.7188 41.25 27.2188 43.5312 27.2188C45.5 27.2188 46.5938 28.0938 47.25 30.2812L55.1562 54.375H55.2812L63.1875 30.25C63.8438 28.125 64.9688 27.2188 66.9375 27.2188C69.1562 27.2188 70.7188 28.6875 70.7188 30.75C70.7188 31.375 70.5625 32.25 70.2812 33L59.375 62.1875C56.375 70.4375 52.9375 73.3125 46.3125 73.3125ZM78.875 72.7812C76.5938 72.7812 75 71.3125 75 68.6875V31.2188C75 28.6562 76.5625 27.2188 78.7812 27.2188C81 27.2188 82.5938 28.6562 82.5938 31.2188V33.5938H82.75C84.625 29.75 88.375 27.3125 93.1875 27.3125C101.594 27.3125 106.938 33.8438 106.938 44.4375C106.938 55 101.625 61.5312 93.3125 61.5312C88.5 61.5312 84.75 59.2188 82.9375 55.5H82.7812V68.6875C82.7812 71.3125 81.1562 72.7812 78.875 72.7812ZM90.8125 55.1562C95.8438 55.1562 98.9688 51 98.9688 44.4375C98.9688 37.9062 95.8438 33.7188 90.8125 33.7188C85.9688 33.7188 82.75 38 82.7188 44.4375C82.75 50.9375 85.9688 55.1562 90.8125 55.1562ZM126.656 61.6562C116.531 61.6562 110.562 55.3125 110.562 44.5625C110.562 34 116.656 27.1875 126.219 27.1875C135.281 27.1875 141.469 33.625 141.469 42.625C141.469 44.9375 140.156 46.3125 137.844 46.3125H118.312V46.5625C118.312 52.0938 121.531 55.6562 126.594 55.6562C130.094 55.6562 132.375 54.4375 134.875 51.25C135.688 50.3438 136.406 50 137.5 50C139.25 50 140.625 51.125 140.625 53C140.625 53.5938 140.438 54.2812 140.094 54.9688C137.906 59.1875 132.969 61.6562 126.656 61.6562ZM118.375 41.1875H133.844C133.688 36.375 130.625 33.2188 126.25 33.2188C121.875 33.2188 118.688 36.4375 118.375 41.1875ZM150.375 61.625C148.031 61.625 146.5 60.0938 146.5 57.5312V31.1562C146.5 28.7188 148 27.2188 150.219 27.2188C152.375 27.2188 153.906 28.7188 153.906 31.1562V33.6875H154.062C154.969 29.8125 157.844 27.3125 161.156 27.3125C162.375 27.3125 163.312 27.625 163.906 28.1562C164.625 28.75 165 29.6875 165 30.9688C165 32.1875 164.625 33.0938 163.844 33.7188C163.094 34.375 161.938 34.7188 160.406 34.75C155.969 34.7812 154.281 37.5625 154.281 41.5938V57.5312C154.281 60.0938 152.719 61.625 150.375 61.625ZM189.094 61.75C175.938 61.75 167.75 52.8125 167.75 38.2812C167.75 23.9688 175.906 15.1562 188.938 15.1562C197.438 15.1562 204.219 19.2812 206.719 25.0938C207.188 26.1562 207.312 26.9688 207.312 27.7812C207.312 29.9062 205.906 31.3125 203.75 31.3125C202 31.3125 200.781 30.5312 199.781 28.7188C197.531 24.25 193.875 22 188.969 22C180.844 22 176 28.0312 176 38.1875C176 48.5625 181.062 54.9062 189.188 54.9062C196 54.9062 200.719 50.5938 200.844 44.2812L200.875 43.5312H192.875C190.875 43.5312 189.5 42.3438 189.5 40.4375C189.5 38.5312 190.875 37.375 192.875 37.375H204.75C207.25 37.375 208.75 38.9375 208.75 41.5625V42.5C208.75 54.2188 201.562 61.75 189.094 61.75ZM224.094 61.5312C217.688 61.5312 213.031 57.5 213.031 51.5312C213.031 45.6562 217.562 42.125 225.625 41.625L234.406 41.125V38.75C234.406 35.2812 232.062 33.2812 228.219 33.2812C225.188 33.2812 223.219 34.3125 221.281 37.1562C220.469 38.2188 219.438 38.7188 218.125 38.7188C216.219 38.7188 214.844 37.4688 214.844 35.5938C214.844 34.875 215.031 34.1875 215.375 33.4688C217.062 29.625 222.188 27.1875 228.531 27.1875C236.75 27.1875 242.094 31.5312 242.094 38.1875V57.7188C242.094 60.2188 240.5 61.625 238.312 61.625C236.188 61.625 234.719 60.3438 234.594 58.0312V55.7188H234.438C232.531 59.3125 228.375 61.5312 224.094 61.5312ZM226.469 55.6562C230.844 55.6562 234.406 52.7188 234.406 48.7188V46.1875L226.719 46.6562C222.969 46.9062 220.812 48.5938 220.812 51.2188C220.812 53.9375 223.094 55.6562 226.469 55.6562ZM250.531 52.8125V33.875H248.438C246.5 33.875 245.312 32.7188 245.312 30.8438C245.312 29 246.5 27.875 248.438 27.875H250.531V23.4688C250.531 20.9688 252.031 19.4062 254.438 19.4062C256.812 19.4062 258.312 20.9688 258.312 23.4688V27.875H261.906C263.844 27.875 265.031 29 265.031 30.8438C265.031 32.7188 263.844 33.875 261.906 33.875H258.312V51.125C258.312 53.625 259.188 54.7188 261.438 54.9062L262 54.9688C264.062 55.1562 265.125 56.0312 265.125 57.8438C265.125 60.125 263.125 61.3438 259.562 61.3438H259.25C253.469 61.3438 250.531 58.4688 250.531 52.8125ZM283.969 61.6562C273.844 61.6562 267.875 55.3125 267.875 44.5625C267.875 34 273.969 27.1875 283.531 27.1875C292.594 27.1875 298.781 33.625 298.781 42.625C298.781 44.9375 297.469 46.3125 295.156 46.3125H275.625V46.5625C275.625 52.0938 278.844 55.6562 283.906 55.6562C287.406 55.6562 289.688 54.4375 292.188 51.25C293 50.3438 293.719 50 294.812 50C296.562 50 297.938 51.125 297.938 53C297.938 53.5938 297.75 54.2812 297.406 54.9688C295.219 59.1875 290.281 61.6562 283.969 61.6562ZM275.688 41.1875H291.156C291 36.375 287.938 33.2188 283.562 33.2188C279.188 33.2188 276 36.4375 275.688 41.1875Z" fill="black"/>
<path d="M196.176 48C195.94 48 195.772 47.878 195.543 47.6951L189.923 42.8933C189.29 42.375 189 41.6128 189 40.5152C189 39.4329 189.282 38.6707 189.915 38.1372L195.543 33.2896C195.772 33.1067 195.94 33 196.176 33C196.672 33 197 33.747 197 34.6463C197 35.5 196.771 36.0793 196.321 36.3841L191.212 40.3476V40.5L196.321 44.5549C196.764 44.875 197 45.4848 197 46.3232C197 47.2378 196.672 48 196.176 48Z" fill="black"/>
<circle cx="4" cy="19" r="4" fill="black"/>
<circle cx="4" cy="32" r="4" fill="black"/>
<circle cx="4" cy="45" r="4" fill="black"/>
<circle cx="4" cy="58" r="4" fill="black"/>
<circle cx="12.5" cy="38" r="4" transform="rotate(-90 12.5 38)" fill="black"/>
<circle cx="25.5" cy="38" r="4" transform="rotate(-90 25.5 38)" fill="black"/>
<circle cx="34" cy="19" r="4" fill="black"/>
<circle cx="34" cy="32" r="4" fill="black"/>
<circle cx="34" cy="45" r="4" fill="black"/>
<circle cx="34" cy="58" r="4" fill="black"/>
</svg>
